<svg width="86" height="23" viewBox="0 0 86 23" fill="none" xmlns="http://www.w3.org/2000/svg">
<path d="M20.0259 22H0.345938L10.1859 0.669999L20.0259 22ZM2.08594 20.89H18.2859L10.1859 3.31L2.08594 20.89ZM23.963 1.12H25.073V14.02C25.073 15.34 25.403 16.56 26.063 17.68C26.723 18.8 27.613 19.69 28.733 20.35C29.853 21.01 31.073 21.34 32.393 21.34C33.713 21.34 34.933 21.01 36.053 20.35C37.173 19.69 38.063 18.8 38.723 17.68C39.383 16.56 39.713 15.34 39.713 14.02V1.12H40.823V14.02C40.823 15.54 40.443 16.95 39.683 18.25C38.923 19.53 37.893 20.55 36.593 21.31C35.313 22.07 33.913 22.45 32.393 22.45C30.873 22.45 29.463 22.07 28.163 21.31C26.883 20.55 25.863 19.53 25.103 18.25C24.343 16.95 23.963 15.54 23.963 14.02V1.12ZM59.13 1.81C60.33 2.37 61.27 3.2 61.95 4.3C62.65 5.4 63 6.62 63 7.96C63 9.52 62.52 10.92 61.56 12.16C60.62 13.38 59.41 14.19 57.93 14.59L63.24 22H61.92L56.79 14.8L55.83 14.83H48.3V22H47.19V1.12H55.14C56.02 1.12 56.77 1.18 57.39 1.3C58.03 1.4 58.61 1.57 59.13 1.81ZM56.13 13.72C57.17 13.72 58.13 13.46 59.01 12.94C59.89 12.42 60.59 11.72 61.11 10.84C61.63 9.96 61.89 9 61.89 7.96C61.89 6.8 61.58 5.75 60.96 4.81C60.36 3.87 59.52 3.17 58.44 2.71C57.66 2.39 56.56 2.23 55.14 2.23H48.3V13.72H56.13ZM76.237 1.12H77.407L85.987 22H84.787L81.967 15.1H71.677L68.827 22H67.657L76.237 1.12ZM72.127 14.02H81.517L76.807 2.56L72.127 14.02Z" fill="white"/>
<path d="M20.0259 22V23H21.5885L20.934 21.5811L20.0259 22ZM0.345938 22L-0.562097 21.5811L-1.21666 23H0.345938V22ZM10.1859 0.669999L11.094 0.251103L10.1859 -1.71723L9.2779 0.251103L10.1859 0.669999ZM2.08594 20.89L1.17771 20.4715L0.524146 21.89H2.08594V20.89ZM18.2859 20.89V21.89H19.8477L19.1942 20.4715L18.2859 20.89ZM10.1859 3.31L11.0942 2.89153L10.1859 0.920332L9.27771 2.89153L10.1859 3.31ZM20.0259 21H0.345938V23H20.0259V21ZM1.25397 22.4189L11.094 1.0889L9.2779 0.251103L-0.562097 21.5811L1.25397 22.4189ZM9.2779 1.0889L19.1179 22.4189L20.934 21.5811L11.094 0.251103L9.2779 1.0889ZM2.08594 21.89H18.2859V19.89H2.08594V21.89ZM19.1942 20.4715L11.0942 2.89153L9.27771 3.72847L17.3777 21.3085L19.1942 20.4715ZM9.27771 2.89153L1.17771 20.4715L2.99417 21.3085L11.0942 3.72847L9.27771 2.89153ZM23.963 1.12V0.119999H22.963V1.12H23.963ZM25.073 1.12H26.073V0.119999H25.073V1.12ZM26.063 17.68L26.9245 17.1723L26.9245 17.1723L26.063 17.68ZM28.733 20.35L28.2253 21.2115L28.2253 21.2115L28.733 20.35ZM36.053 20.35L35.5453 19.4885L35.5453 19.4885L36.053 20.35ZM38.723 17.68L37.8614 17.1723L37.8614 17.1723L38.723 17.68ZM39.713 1.12V0.119999H38.713V1.12H39.713ZM40.823 1.12H41.823V0.119999H40.823V1.12ZM39.683 18.25L40.5428 18.7606L40.5463 18.7547L39.683 18.25ZM36.593 21.31L36.0883 20.4467L36.0824 20.4501L36.593 21.31ZM28.163 21.31L27.6524 22.1699L27.6583 22.1733L28.163 21.31ZM25.103 18.25L24.2397 18.7547L24.2431 18.7605L25.103 18.25ZM23.963 2.12H25.073V0.119999H23.963V2.12ZM24.073 1.12V14.02H26.073V1.12H24.073ZM24.073 14.02C24.073 15.5157 24.4493 16.9114 25.2014 18.1877L26.9245 17.1723C26.3566 16.2086 26.073 15.1643 26.073 14.02H24.073ZM25.2014 18.1877C25.9475 19.4537 26.9592 20.4655 28.2253 21.2115L29.2407 19.4885C28.2667 18.9145 27.4985 18.1463 26.9245 17.1723L25.2014 18.1877ZM28.2253 21.2115C29.5016 21.9636 30.8973 22.34 32.393 22.34V20.34C31.2486 20.34 30.2044 20.0564 29.2407 19.4885L28.2253 21.2115ZM32.393 22.34C33.8886 22.34 35.2844 21.9636 36.5607 21.2115L35.5453 19.4885C34.5816 20.0564 33.5373 20.34 32.393 20.34V22.34ZM36.5607 21.2115C37.8267 20.4655 38.8385 19.4537 39.5845 18.1877L37.8614 17.1723C37.2875 18.1463 36.5192 18.9145 35.5453 19.4885L36.5607 21.2115ZM39.5845 18.1877C40.3366 16.9114 40.713 15.5157 40.713 14.02H38.713C38.713 15.1643 38.4293 16.2086 37.8614 17.1723L39.5845 18.1877ZM40.713 14.02V1.12H38.713V14.02H40.713ZM39.713 2.12H40.823V0.119999H39.713V2.12ZM39.823 1.12V14.02H41.823V1.12H39.823ZM39.823 14.02C39.823 15.3644 39.4893 16.5999 38.8197 17.7453L40.5463 18.7547C41.3967 17.3001 41.823 15.7156 41.823 14.02H39.823ZM38.8231 17.7395C38.1507 18.8719 37.2437 19.7712 36.0883 20.4467L37.0977 22.1733C38.5423 21.3288 39.6952 20.1881 40.5428 18.7605L38.8231 17.7395ZM36.0824 20.4501C34.9603 21.1164 33.7373 21.45 32.393 21.45V23.45C34.0887 23.45 35.6656 23.0236 37.1035 22.1699L36.0824 20.4501ZM32.393 21.45C31.0486 21.45 29.813 21.1163 28.6677 20.4467L27.6583 22.1733C29.1129 23.0237 30.6973 23.45 32.393 23.45V21.45ZM28.6735 20.4501C27.5373 19.7755 26.6374 18.8756 25.9628 17.7395L24.2431 18.7605C25.0885 20.1844 26.2286 21.3245 27.6524 22.1699L28.6735 20.4501ZM25.9663 17.7453C25.2967 16.5999 24.963 15.3644 24.963 14.02H22.963C22.963 15.7156 23.3893 17.3001 24.2397 18.7547L25.9663 17.7453ZM24.963 14.02V1.12H22.963V14.02H24.963ZM59.13 1.81L59.5529 0.903808L59.5491 0.90204L59.13 1.81ZM61.95 4.3L61.0993 4.82587L61.1063 4.83687L61.95 4.3ZM61.56 12.16L60.7693 11.5478L60.7679 11.5497L61.56 12.16ZM57.93 14.59L57.6691 13.6246L56.2775 14.0007L57.1172 15.1725L57.93 14.59ZM63.24 22V23H65.1869L64.0528 21.4175L63.24 22ZM61.92 22L61.1056 22.5803L61.4046 23H61.92V22ZM56.79 14.8L57.6044 14.2197L57.2938 13.7838L56.7588 13.8005L56.79 14.8ZM55.83 14.83V15.83H55.8456L55.8612 15.8295L55.83 14.83ZM48.3 14.83V13.83H47.3V14.83H48.3ZM48.3 22V23H49.3V22H48.3ZM47.19 22H46.19V23H47.19V22ZM47.19 1.12V0.119999H46.19V1.12H47.19ZM57.39 1.3L57.2 2.28178L57.2177 2.28522L57.2356 2.28801L57.39 1.3ZM59.01 12.94L58.5013 12.0791L58.5013 12.0791L59.01 12.94ZM61.11 10.84L60.2491 10.3313L60.2491 10.3313L61.11 10.84ZM60.96 4.81L60.1171 5.34803L60.1211 5.35435L60.1252 5.36059L60.96 4.81ZM58.44 2.71L58.8319 1.78989L58.8196 1.78483L58.44 2.71ZM48.3 2.23V1.23H47.3V2.23H48.3ZM48.3 13.72H47.3V14.72H48.3V13.72ZM58.7071 2.71618C59.735 3.19587 60.5244 3.89574 61.0994 4.82582L62.8006 3.77418C62.0156 2.50426 60.925 1.54413 59.5529 0.903816L58.7071 2.71618ZM61.1063 4.83687C61.7013 5.77179 62 6.80461 62 7.96H64C64 6.43538 63.5987 5.02821 62.7937 3.76312L61.1063 4.83687ZM62 7.96C62 9.29713 61.5944 10.4821 60.7693 11.5478L62.3507 12.7722C63.4456 11.3579 64 9.74287 64 7.96H62ZM60.7679 11.5497C59.9607 12.5973 58.9369 13.282 57.6691 13.6246L58.1909 15.5554C59.8831 15.098 61.2793 14.1627 62.3521 12.7703L60.7679 11.5497ZM57.1172 15.1725L62.4272 22.5825L64.0528 21.4175L58.7428 14.0075L57.1172 15.1725ZM63.24 21H61.92V23H63.24V21ZM62.7344 21.4197L57.6044 14.2197L55.9756 15.3803L61.1056 22.5803L62.7344 21.4197ZM56.7588 13.8005L55.7988 13.8305L55.8612 15.8295L56.8212 15.7995L56.7588 13.8005ZM55.83 13.83H48.3V15.83H55.83V13.83ZM47.3 14.83V22H49.3V14.83H47.3ZM48.3 21H47.19V23H48.3V21ZM48.19 22V1.12H46.19V22H48.19ZM47.19 2.12H55.14V0.119999H47.19V2.12ZM55.14 2.12C55.9791 2.12 56.6616 2.17758 57.2 2.28178L57.58 0.318218C56.8784 0.182418 56.0609 0.119999 55.14 0.119999V2.12ZM57.2356 2.28801C57.7959 2.37555 58.2852 2.52146 58.7109 2.71796L59.5491 0.90204C58.9348 0.618532 58.2641 0.424445 57.5444 0.311986L57.2356 2.28801ZM56.13 14.72C57.3457 14.72 58.4819 14.4136 59.5187 13.8009L58.5013 12.0791C57.7782 12.5064 56.9943 12.72 56.13 12.72V14.72ZM59.5187 13.8009C60.544 13.1951 61.3651 12.374 61.9709 11.3487L60.2491 10.3313C59.8149 11.066 59.236 11.6449 58.5013 12.0791L59.5187 13.8009ZM61.9709 11.3487C62.5836 10.3118 62.89 9.17568 62.89 7.96H60.89C60.89 8.82432 60.6764 9.60815 60.2491 10.3313L61.9709 11.3487ZM62.89 7.96C62.89 6.6105 62.5259 5.36795 61.7948 4.2594L60.1252 5.36059C60.6341 6.13205 60.89 6.9895 60.89 7.96H62.89ZM61.8029 4.27196C61.0886 3.15288 60.087 2.32455 58.8319 1.78998L58.0481 3.63002C58.953 4.01545 59.6314 4.58712 60.1171 5.34803L61.8029 4.27196ZM58.8196 1.78483C57.864 1.39282 56.6133 1.23 55.14 1.23V3.23C56.5067 3.23 57.456 3.38717 58.0604 3.63517L58.8196 1.78483ZM55.14 1.23H48.3V3.23H55.14V1.23ZM47.3 2.23V13.72H49.3V2.23H47.3ZM48.3 14.72H56.13V12.72H48.3V14.72ZM76.237 1.12V0.119999H75.5668L75.3121 0.739918L76.237 1.12ZM77.407 1.12L78.332 0.739917L78.0772 0.119999H77.407V1.12ZM85.987 22V23H87.4791L86.912 21.6199L85.987 22ZM84.787 22L83.8614 22.3783L84.1154 23H84.787V22ZM81.967 15.1L82.8927 14.7217L82.6386 14.1H81.967V15.1ZM71.677 15.1V14.1H71.0081L70.7528 14.7182L71.677 15.1ZM68.827 22V23H69.4959L69.7513 22.3818L68.827 22ZM67.657 22L66.7321 21.6199L66.165 23H67.657V22ZM72.127 14.02L71.2013 13.6419L70.6385 15.02H72.127V14.02ZM81.517 14.02V15.02H83.0092L82.442 13.6399L81.517 14.02ZM76.807 2.56L77.732 2.17986L76.8041 -0.0777975L75.8813 2.18193L76.807 2.56ZM76.237 2.12H77.407V0.119999H76.237V2.12ZM76.4821 1.50008L85.0621 22.3801L86.912 21.6199L78.332 0.739917L76.4821 1.50008ZM85.987 21H84.787V23H85.987V21ZM85.7127 21.6217L82.8927 14.7217L81.0414 15.4783L83.8614 22.3783L85.7127 21.6217ZM81.967 14.1H71.677V16.1H81.967V14.1ZM70.7528 14.7182L67.9028 21.6182L69.7513 22.3818L72.6013 15.4818L70.7528 14.7182ZM68.827 21H67.657V23H68.827V21ZM68.582 22.3801L77.162 1.50008L75.3121 0.739918L66.7321 21.6199L68.582 22.3801ZM72.127 15.02H81.517V13.02H72.127V15.02ZM82.442 13.6399L77.732 2.17986L75.8821 2.94014L80.5921 14.4001L82.442 13.6399ZM75.8813 2.18193L71.2013 13.6419L73.0528 14.3981L77.7328 2.93807L75.8813 2.18193Z" fill="black"/>
</svg>
